# xmcd
#
# Track frame offsets:
#  150
#  12325
#  23640
#  35870
#  48547
#  64625
#  76207
#  90375
#  100680
#  112657
#  128795
#  140377
#  150262
#  159587
#
# Disc length: 2264 seconds
#
# Revision: 0
# Processed by: cddbd v1.5.1PL2 Copyright (c) Steve Scherf et al.
# Submitted via: Collectorz.com_Music_Collector 6.9
#
DISCID=9d08d60e
DTITLE=Various Artist - Hello Country
DYEAR=1994
DGENRE=Country
TTITLE0=Johnny Lee - Hey Bartender
TTITLE1=Conway Twitty - Hello Darlin'
TTITLE2=Merle Haggard - I Tke A Lot Of Pride In What I Am
TTITLE3=Patsy Cline - Just A Closer Walk With Thee
TTITLE4=Bill Anderson - Detroit City
TTITLE5=George Jones - Window Up Above
TTITLE6=Lee Greenwood - I.O.U.
TTITLE7=Roger Miller - Engine, Engine #9
TTITLE8=Conway Twitty - She Needs Someone To Hold Her (When She Cries)
TTITLE9=Johnny Lee - Looking For Love
TTITLE10=The Kendalls - Heaven's Just A Sin Away
TTITLE11=Merle Haggard - Mama Tried
TTITLE12=Faron Young - Hello Walls
TTITLE13=George Jones - Walk Through This World With Me
EXTD=
EXTT0=
EXTT1=
EXTT2=
EXTT3=
EXTT4=
EXTT5=
EXTT6=
EXTT7=
EXTT8=
EXTT9=
EXTT10=
EXTT11=
EXTT12=
EXTT13=
PLAYORDER=
